<svg xmlns="http://www.w3.org/2000/svg" xmlns:xlink="http://www.w3.org/1999/xlink" version="1.1" id="Layer_1" x="0px" y="0px" viewBox="0 0 517.21 154" style="enable-background:new 0 0 517.21 154;" xml:space="preserve"><style type="text/css">.st0{fill:#A95153;}.st1{fill:#FBE0B6;}</style><g><g id="XMLID_84_"><g id="XMLID_85_"><g id="XMLID_86_"><path id="XMLID_87_" class="st0" d="M117.08,61.08c0-32.14-25.61-58.19-57.2-58.19c-31.59,0-57.2,26.05-57.2,58.19 c0,3.49,0.31,6.9,0.89,10.22c0.61,3.5,4.05,5.72,7.43,4.8l28.75-7.77c2.67-0.72,4.45-3.2,4.44-6.01c0-0.02,0-0.03,0-0.05 c0-8.82,7.03-15.97,15.7-15.97c8.67,0,15.7,7.15,15.7,15.97c0,0.13,0,0.25,0,0.38c-0.06,2.77,1.74,5.22,4.36,5.97l28.63,8.19 c3.38,0.97,6.84-1.22,7.5-4.73C116.72,68.52,117.08,64.84,117.08,61.08z"/></g></g></g><g><g id="XMLID_76_"><path id="XMLID_83_" class="st0" d="M168.21,99.42h14.47V56.46c0,0-6.61,0.46-10.54,4.13c-3.24,3.02-3.93,9.14-3.93,10.94 C168.21,75.52,168.21,99.42,168.21,99.42z"/><g id="XMLID_81_"><path id="XMLID_82_" class="st0" d="M147.93,84.21c-3.47,0-6.28-2.81-6.28-6.28c0-3.47,2.81-6.28,6.28-6.28 c1.65,0,3.15,0.64,4.27,1.68l10.59-10.59c-3.89-3.89-9.26-6.29-15.19-6.29c-11.86,0-21.48,9.62-21.48,21.48 c0,11.86,9.62,21.48,21.48,21.48c5.93,0,11.3-2.4,15.19-6.29l-10.59-10.59C151.07,83.57,149.58,84.21,147.93,84.21z"/></g><path id="XMLID_78_" class="st0" d="M258.42,84.27c-1.82,0-3.46-0.78-4.6-2.02l8.88-8.88l0,0l10.61-10.61 c-3.89-3.89-9.27-6.3-15.22-6.3c-11.89,0-21.52,9.64-21.52,21.52c0,11.89,9.64,21.52,21.52,21.52c5.94,0,11.32-2.41,15.22-6.3 L262.7,82.58C261.58,83.62,260.08,84.27,258.42,84.27z M258.42,71.69c0.97,0,1.89,0.23,2.71,0.62l-8.38,8.38 c-0.39-0.82-0.62-1.74-0.62-2.71C252.14,74.5,254.95,71.69,258.42,71.69z"/><path id="XMLID_77_" class="st0" d="M203.53,99.46V77.94c0-3.37,2.73-6.1,6.1-6.1c3.37,0,6.1,2.73,6.1,6.1v21.52h15.43V77.94 c0-11.89-9.64-21.52-21.52-21.52s-21.52,9.64-21.52,21.52v21.52H203.53z"/></g></g></svg>
